<svg width="30" height="27" viewBox="0 0 30 27" fill="none" xmlns="http://www.w3.org/2000/svg">
<path fill-rule="evenodd" clip-rule="evenodd" d="M26.2348 0.231756C26.5678 0.0158737 26.9655 -0.0525958 27.3444 0.0407175C27.7233 0.134031 28.0539 0.381872 28.2668 0.732222L29.7547 3.17787C29.9487 3.49736 30.0317 3.88042 29.9891 4.25944C29.9465 4.63846 29.781 4.98907 29.5218 5.24938L29.5173 5.25586L29.4962 5.27692L29.4106 5.36276L29.0724 5.71098C27.2013 7.66695 25.3868 9.6849 23.6317 11.7619C20.3296 15.675 16.4084 20.7963 13.7692 25.7653C13.0328 27.1517 11.2337 27.4497 10.1666 26.2528L0.419872 15.3397C0.280194 15.1833 0.171131 14.9981 0.0991637 14.7954C0.0271968 14.5926 -0.00620354 14.3763 0.000947044 14.1593C0.00809763 13.9423 0.0556531 13.7291 0.140788 13.5324C0.225923 13.3356 0.346897 13.1593 0.496523 13.0139L3.44233 10.1504C3.70121 9.89888 4.03315 9.75215 4.38135 9.73531C4.72955 9.71847 5.07236 9.83257 5.3511 10.0581L10.3244 14.0764C18.0933 5.82112 22.4984 2.65311 26.2348 0.231756Z" fill="#00A6FB"/>
</svg>
