<svg width="24" height="22" viewBox="0 0 24 22" fill="none" xmlns="http://www.w3.org/2000/svg">
<path d="M21.2084 3.30203C20.6763 2.76974 20.0446 2.3475 19.3494 2.05941C18.6541 1.77133 17.9089 1.62305 17.1563 1.62305C16.4037 1.62305 15.6585 1.77133 14.9632 2.05941C14.2679 2.3475 13.6362 2.76974 13.1042 3.30203L12 4.4062L10.8959 3.30203C9.8212 2.22735 8.36362 1.6236 6.84379 1.6236C5.32397 1.6236 3.86639 2.22735 2.79171 3.30203C1.71703 4.37671 1.11328 5.83429 1.11328 7.35411C1.11328 8.87394 1.71703 10.3315 2.79171 11.4062L12 20.6145L21.2084 11.4062C21.7407 10.8742 22.1629 10.2425 22.451 9.54719C22.7391 8.85192 22.8874 8.10671 22.8874 7.35411C22.8874 6.60152 22.7391 5.85631 22.451 5.16104C22.1629 4.46577 21.7407 3.83407 21.2084 3.30203Z" stroke="#1E1E1E" stroke-width="2" stroke-linecap="round" stroke-linejoin="round"/>
</svg>
