<svg width="32" height="33" viewBox="0 0 32 33" fill="none" xmlns="http://www.w3.org/2000/svg">
<path fill-rule="evenodd" clip-rule="evenodd" d="M18.4605 3.41379H13.537C13.2106 3.41379 12.8975 3.53368 12.6667 3.74709C12.4359 3.96049 12.3062 4.24993 12.3062 4.55172V5.68965H19.6914V4.55172C19.6914 4.24993 19.5617 3.96049 19.3309 3.74709C19.1 3.53368 18.7869 3.41379 18.4605 3.41379ZM23.384 5.68965V4.55172C23.384 3.34453 22.8652 2.18678 21.9419 1.33317C21.0186 0.479555 19.7663 0 18.4605 0H13.537C12.2313 0 10.979 0.479555 10.0556 1.33317C9.13231 2.18678 8.61359 3.34453 8.61359 4.55172V5.68965H1.8463C1.35663 5.68965 0.887015 5.86949 0.540767 6.18959C0.19452 6.5097 0 6.94385 0 7.39655C0 7.84925 0.19452 8.2834 0.540767 8.60351C0.887015 8.92361 1.35663 9.10345 1.8463 9.10345H2.61435L3.39472 26.4569C3.47413 28.2171 4.28645 29.8809 5.66187 31.1003C7.03729 32.3197 8.86933 33.0004 10.775 33H21.225C23.1302 32.9998 24.9617 32.3188 26.3366 31.0995C27.7115 29.8801 28.5234 28.2167 28.6028 26.4569L29.3856 9.10345H30.1537C30.6434 9.10345 31.113 8.92361 31.4592 8.60351C31.8055 8.2834 32 7.84925 32 7.39655C32 6.94385 31.8055 6.5097 31.4592 6.18959C31.113 5.86949 30.6434 5.68965 30.1537 5.68965H23.384ZM25.6881 9.10345H6.30941L7.08485 26.3135C7.12425 27.1938 7.53027 28.026 8.21801 28.6359C8.90576 29.2459 9.82195 29.5864 10.775 29.5862H21.225C22.1776 29.5858 23.0932 29.245 23.7804 28.6351C24.4676 28.0253 24.8733 27.1934 24.9127 26.3135L25.6881 9.10345ZM10.4599 13.6552V25.0345C10.4599 25.4872 10.6544 25.9213 11.0006 26.2414C11.3469 26.5615 11.8165 26.7414 12.3062 26.7414C12.7958 26.7414 13.2655 26.5615 13.6117 26.2414C13.958 25.9213 14.1525 25.4872 14.1525 25.0345V13.6552C14.1525 13.2025 13.958 12.7683 13.6117 12.4482C13.2655 12.1281 12.7958 11.9483 12.3062 11.9483C11.8165 11.9483 11.3469 12.1281 11.0006 12.4482C10.6544 12.7683 10.4599 13.2025 10.4599 13.6552ZM19.6914 11.9483C20.181 11.9483 20.6506 12.1281 20.9969 12.4482C21.3431 12.7683 21.5377 13.2025 21.5377 13.6552V25.0345C21.5377 25.4872 21.3431 25.9213 20.9969 26.2414C20.6506 26.5615 20.181 26.7414 19.6914 26.7414C19.2017 26.7414 18.7321 26.5615 18.3858 26.2414C18.0396 25.9213 17.8451 25.4872 17.8451 25.0345V13.6552C17.8451 13.2025 18.0396 12.7683 18.3858 12.4482C18.7321 12.1281 19.2017 11.9483 19.6914 11.9483Z" fill="black"/>
</svg>
