<svg width="8" height="15" viewBox="0 0 8 15" fill="none" xmlns="http://www.w3.org/2000/svg">
<path d="M8 1.49999C8 0.647995 7.014 0.202995 6.377 0.716995L6.293 0.792995L0.292999 6.79299C0.120822 6.96519 0.0173926 7.19429 0.00211143 7.43731C-0.0131693 7.68034 0.0607476 7.92059 0.209999 8.11299L0.292999 8.20699L6.293 14.207L6.387 14.29L6.464 14.344L6.56 14.398L6.596 14.415L6.663 14.442L6.771 14.474L6.824 14.484L6.884 14.494L6.941 14.498L7 14.5L7.059 14.498L7.117 14.493L7.177 14.484L7.229 14.474L7.337 14.442L7.404 14.415L7.536 14.345L7.626 14.28L7.707 14.207L7.79 14.113L7.844 14.036L7.898 13.94L7.915 13.904L7.942 13.837L7.974 13.729L7.984 13.676L7.994 13.616L7.998 13.559L8 1.49999Z" fill="black"/>
</svg>
