<svg width="8" height="15" viewBox="0 0 8 15" fill="none" xmlns="http://www.w3.org/2000/svg">
<path d="M0 1.49999C0 0.647995 0.986 0.202995 1.623 0.716995L1.707 0.792995L7.707 6.79299C7.87918 6.96519 7.98261 7.19429 7.99789 7.43731C8.01317 7.68034 7.93925 7.92059 7.79 8.11299L7.707 8.20699L1.707 14.207L1.613 14.29L1.536 14.344L1.44 14.398L1.404 14.415L1.337 14.442L1.229 14.474L1.176 14.484L1.116 14.494L1.059 14.498L1 14.5L0.941 14.498L0.883 14.493L0.823 14.484L0.771 14.474L0.663 14.442L0.596 14.415L0.464 14.345L0.374 14.28L0.293 14.207L0.21 14.113L0.156 14.036L0.102 13.94L0.085 13.904L0.0579996 13.837L0.026 13.729L0.0159998 13.676L0.00599957 13.616L0.00199986 13.559L0 1.49999Z" fill="black"/>
</svg>
